<?xml version="1.0" encoding="utf-8"?>
<!-- Generator: Adobe Illustrator 21.0.0, SVG Export Plug-In . SVG Version: 6.00 Build 0)  -->
<svg version="1.1" id="Layer_1" xmlns="http://www.w3.org/2000/svg" xmlns:xlink="http://www.w3.org/1999/xlink" x="0px" y="0px"
	 viewBox="0 0 326 331" style="enable-background:new 0 0 326 331;" xml:space="preserve">
<g id="Menard_Media">
</g>
<g id="Moon">
</g>
<g id="Arrow">
</g>
<g id="Line_1">
</g>
<g id="Line_2">
</g>
<path d="M204.4,19.8C254.8,37,291,84.7,291,140.9c0,70.7-57.3,128-128,128s-128-57.3-128-128C35,84.7,71.2,37,121.6,19.8
	c-62,17.9-107.3,75-107.3,142.8c0,82.1,66.6,148.7,148.7,148.7s148.7-66.6,148.7-148.7C311.7,94.8,266.4,37.7,204.4,19.8z"/>
<g>
	<path d="M151.3,187.7c0.1-5.7,0.5-10.7,1.3-15c0.8-4.3,2-8.3,3.7-11.9c1.7-3.7,3.9-7.2,6.8-10.6c2.8-3.4,6.3-7.1,10.4-11.1
		c3.6-3.6,6.8-6.9,9.8-10c3-3.1,5.6-6.3,7.8-9.6c2.2-3.3,3.9-7,5.1-11c1.2-4,1.8-8.7,1.8-14.1c0-5.4-0.7-10.2-2.1-14.6
		c-1.4-4.4-3.5-8.1-6.4-11.3c-2.8-3.2-6.3-5.6-10.6-7.4c-4.2-1.7-9.1-2.6-14.7-2.6c-5.2,0-10,0.8-14.3,2.3
		c-4.4,1.5-8.2,3.7-11.4,6.7c-3.2,2.9-5.7,6.5-7.5,10.7c-1.8,4.2-2.7,9-2.8,14.3h-15.9c0.1-7.6,1.5-14.4,4.2-20.4
		c2.7-6,6.4-11.1,11.1-15.2c4.7-4.1,10.2-7.2,16.5-9.4c6.3-2.2,13-3.3,20.1-3.3c8,0,15.1,1.2,21.3,3.7c6.2,2.5,11.3,5.9,15.5,10.2
		c4.2,4.4,7.4,9.6,9.6,15.8c2.2,6.2,3.3,12.9,3.3,20.2c0,6-0.8,11.5-2.3,16.5c-1.5,5-3.7,9.8-6.4,14.3c-2.8,4.5-6.1,8.9-10,13
		c-3.9,4.2-8.1,8.4-12.8,12.7c-2.9,2.4-5.3,5-7.2,7.8c-2,2.8-3.5,5.8-4.7,8.9c-1.2,3.1-2,6.4-2.5,9.8c-0.5,3.4-0.7,6.9-0.7,10.4
		H151.3z M149.1,232.4c0-3,1-5.6,2.9-7.7c1.9-2.1,4.6-3.1,8.1-3.1c3.4,0,6.1,1,8.1,3.1c2,2.1,3,4.7,3,7.7c0,2.9-1,5.4-3,7.4
		s-4.7,3-8.1,3c-3.5,0-6.2-1-8.1-3C150.1,237.8,149.1,235.3,149.1,232.4z"/>
</g>
</svg>
