<?xml version="1.0" encoding="utf-8"?>
<!-- Generator: Adobe Illustrator 21.0.2, SVG Export Plug-In . SVG Version: 6.00 Build 0)  -->
<svg version="1.1" id="Layer_1" xmlns="http://www.w3.org/2000/svg" xmlns:xlink="http://www.w3.org/1999/xlink" x="0px" y="0px"
	 viewBox="0 0 641.2 97.8" style="enable-background:new 0 0 641.2 97.8;" xml:space="preserve">
<g>
	<path d="M48.8,68.9c-10.1,0-18.4-8.2-18.4-18.4s8.2-18.4,18.4-18.4c10.1,0,18.4,8.2,18.4,18.4S59,68.9,48.8,68.9z M48.8,34.4
		c-8.9,0-16.1,7.2-16.1,16.1c0,8.9,7.2,16.1,16.1,16.1c8.9,0,16.1-7.2,16.1-16.1C65,41.6,57.7,34.4,48.8,34.4z M57,54.7
		c-0.9,3.1-3.4,6.3-8.1,6.3c-5.2,0-9.2-4.5-9.2-10.4c0-6,3.8-10.1,9.3-10.1c2.9,0,5.6,1.1,7.7,5.3l-2.3,0.7c-1.1-2.7-3-4-5.4-4
		c-4.1,0-6.8,3.1-6.8,7.9c0,5,2.7,8.4,6.5,8.4c2.9,0,4.5-1.4,6-4.9L57,54.7z"/>
	<path d="M86,56.7c-0.3,1.7-0.4,2.6-0.4,3.5c0,4.1,2,6.3,5.6,6.3c3.5,0,5.5-2.5,5.5-6.9v-27H99v26.6c0,6.1-2.8,9.5-7.9,9.5
		c-5,0-7.9-3.1-7.9-8.5c0-0.5,0-1,0.1-2.1L86,56.7z"/>
	<path d="M108.9,32.5h21l-1,2.2h-17.6v13.9h15.6v2.2h-15.6v14.9h18.1l0.8,2.2h-21.3V32.5z"/>
	<path d="M137.5,58.5c1,2.7,3.5,8.4,11.6,8.4c5.9,0,10-3.2,10-7.9c0-4.7-5-7-10.5-8.9c-4.8-1.7-10.9-3.8-10.9-9.9
		c0-5.2,4.1-8.4,10.8-8.4c6.7,0,9.5,3.6,11.6,6.3l-1.7,2.3c-1-1.9-3.6-6.6-9.6-6.6c-5.2,0-8.5,2.5-8.5,6.4c0,3.1,2.3,4.9,9.5,7.4
		c6.8,2.5,12,5,12,11c0,6.2-5.2,10.5-12.7,10.5c-8.5,0-12.5-6.5-13.4-9.1L137.5,58.5z"/>
	<path d="M169,58.5c1,2.7,3.5,8.4,11.6,8.4c5.9,0,10-3.2,10-7.9c0-4.7-5-7-10.5-8.9c-4.8-1.7-10.9-3.8-10.9-9.9
		c0-5.2,4.1-8.4,10.8-8.4c6.7,0,9.5,3.6,11.6,6.3l-1.7,2.3c-1-1.9-3.6-6.6-9.6-6.6c-5.2,0-8.5,2.5-8.5,6.4c0,3.1,2.3,4.9,9.5,7.4
		c6.8,2.5,12,5,12,11c0,6.2-5.2,10.5-12.7,10.5c-8.5,0-12.5-6.5-13.4-9.1L169,58.5z"/>
	<path d="M200.9,32.5h21l-1,2.2h-17.6v13.9h15.6v2.2h-15.6v14.9h18.1l0.8,2.2h-21.3V32.5z"/>
	<path d="M241.5,32.5h4.1L258,63.4l12.5-30.9h4V68h-2.4V34.1L258.6,68h-1.1l-13.6-33.7V68h-2.4V32.5z"/>
	<path d="M284,32.5h21l-1,2.2h-17.6v13.9h15.6v2.2h-15.6v14.9h18.1l0.8,2.2H284V32.5z"/>
	<path d="M313.5,32.5h3.3l20.7,32.3V32.5h2.4V68h-3l-21.1-32.8V68h-2.4V32.5z"/>
	<path d="M361.2,32.5h2.8L378.7,68h-2.3l-4.1-9.7H353l-4.1,9.7h-2.4L361.2,32.5z M362.7,34.9l-8.8,21.2h17.6L362.7,34.9z"/>
	<path d="M384.6,32.5h14.4c6.3,0,10.6,3.7,10.6,9.2c0,2.6-1.1,4.9-3.1,6.6c-1.3,1.1-2.2,1.5-4.5,2.2l8.8,17.4h-2.4l-8.7-17h-12.6v17
		h-2.4V32.5z M387.1,34.6v14.4H398c5.6,0,9.3-2.9,9.3-7.2c0-4-3.5-7.1-8.2-7.1H387.1z"/>
	<path d="M419.1,32.5h12.2c9.6,0,15.8,7.2,15.8,18.4c0,5.5-1.6,9.8-4.8,12.9c-3,2.9-6.7,4.2-12.5,4.2h-10.7V32.5z M421.5,34.7v31.1
		h8.6c5,0,8.1-1.1,10.6-3.6c2.6-2.7,3.9-6.7,3.9-11.5c0-5.2-1.5-9.7-4.2-12.4c-2.4-2.5-5.8-3.7-10.2-3.7H421.5z"/>
	<path d="M485.3,19.7h2.1v59h-2.1V19.7z"/>
	<path d="M525.9,48.2c-1.3-2.3-1.7-3.5-1.7-5.4c0-5.1,4.3-9,10-9c5.4,0,9.6,4.1,9.6,9.4c0,3.1-1.1,5.4-3.8,8c-1.3,1.3-8.5,7-10,8.4
		c-2.4,2.5-3.1,3.7-3.5,6.2h16.7V68h-18.7c0.1-6,2.7-8.6,9.1-13.8c4.2-3.3,7.9-6.4,7.9-11.2c0-4-3.4-7.2-7.6-7.2
		c-4.2,0-7.6,3.2-7.6,7.2c0,0.9,0.3,2,1.2,3.7L525.9,48.2z"/>
	<path d="M547.4,51.4c0-11.5,3.6-17.8,10.3-17.8c6.4,0,10,6.5,10,18.1c0,10-4,16.7-10,16.7C551.3,68.5,547.4,62,547.4,51.4z
		 M549.5,51.1c0,9.8,3.1,15.5,8.3,15.5c4.9,0,7.8-5.8,7.8-15.5c0-9.8-3-15.5-8-15.5C552.5,35.5,549.5,41.2,549.5,51.1z"/>
	<path d="M572.7,40.7c4.8-2,6.7-3.6,8.4-6.9h1.6V68h-2.1V37.8c-2.7,2.8-4.4,3.5-7.9,4.7V40.7z"/>
	<path d="M590.8,34.4h18.9v1.7C604.4,47,602,55.8,600.4,68h-2.8c1.2-10.2,4.1-17.8,10-31.5h-16.9V34.4z"/>
</g>
</svg>
