<?xml version="1.0" encoding="utf-8"?>
<!-- Generator: Adobe Illustrator 21.0.0, SVG Export Plug-In . SVG Version: 6.00 Build 0)  -->
<svg version="1.1" id="Layer_1" xmlns="http://www.w3.org/2000/svg" xmlns:xlink="http://www.w3.org/1999/xlink" x="0px" y="0px"
	 viewBox="0 0 600 600" style="enable-background:new 0 0 600 600;" xml:space="preserve">
<g>
	<path d="M436.6,263.7H163.4c-13.7,0-24.9-11.2-24.9-24.9v144.7c0,13.7,11.2,24.9,24.9,24.9h273.2c13.7,0,24.9-11.2,24.9-24.9V238.8
		C461.5,252.5,450.3,263.7,436.6,263.7z"/>
	<path d="M434.5,191.5h-269c-13.5,0-24.5,11-24.5,24.5v18.2c0,13.5,11,24.5,24.5,24.5h269c13.5,0,24.5-11,24.5-24.5V216
		C459,202.6,448,191.5,434.5,191.5z"/>
</g>
</svg>
