<?xml version="1.0" encoding="utf-8"?>
<!-- Generator: Adobe Illustrator 21.0.2, SVG Export Plug-In . SVG Version: 6.00 Build 0)  -->
<svg version="1.1" id="Layer_1" xmlns="http://www.w3.org/2000/svg" xmlns:xlink="http://www.w3.org/1999/xlink" x="0px" y="0px"
	 viewBox="0 0 938.9 364.2" style="enable-background:new 0 0 938.9 364.2;" xml:space="preserve">
<style type="text/css">
	.st0{fill:#FFFFFF;}
	.st1{font-family:'GrotesqueMTStd-Light';}
	.st2{font-size:37.1501px;}
	.st3{letter-spacing:-1;}
</style>
<g>
	<path d="M478.2,271.4c0.5-1.8,1.1-3.6,1.6-5.4c-0.4-0.2-0.7-0.4-1.1-0.7c-9.5,9.6-14.7,22.4-23.2,33c-0.9-0.8-1.6-1.3-2.7-2.2
		c-7.4,12.7-14.7,25.2-21.9,37.7c-0.3-0.1-0.6-0.3-0.9-0.4c4-7.9,7.6-16,12-23.7c8.4-14.8,17-29.6,25.8-44.1
		c7.8-12.8,15.9-25.4,24-37.9c10.7-16.4,21.5-32.7,32.3-49c6-9.1,11.8-18.2,18-27.1c6.3-9,12.9-17.7,19.4-26.5
		c4.6-6.3,9.2-12.5,13.8-18.8c0.4-0.6,0.6-1.4,1-2.5c-12.1,3.8-22.7,9.4-32,17.6c-3.8,3.4-7.3,7.9-13.6,7.1
		c-3.2-0.4-5.5-1.3-7.4-4.2c-2.7-4.2-5.1-4-8.8-0.6c-15,13.5-27.8,28.8-38.3,46c-2,3.2-10,6.1-12.4,4.7c-5.6-3.1-8.2-9.2-5.9-14.7
		c7.1-17.3,14.2-34.7,21.4-51.9c1.7-4.2,3.9-8.1,5.9-12.2c-0.5-0.4-1-0.8-1.5-1.3c-5.1,3.6-10.2,7.2-15.3,10.7
		c-3.6,2.4-7,5.1-10.9,6.9c-2.5,1.1-5.7,0.7-8.6,1c-0.2-0.6-0.5-1.3-0.7-1.9c1.6-1.4,3.2-3,4.9-4.3c9.7-7.2,19.5-14.4,29.2-21.5
		c3-2.2,5.9-4.4,9-6.3c7.7-5,13-2.1,14.6,6.9c0.6,3.7,0.4,6.2-1.6,9.5c-2.8,4.5-4.2,9.7-6.4,14.5c-2.2,4.8-4.6,9.5-6.9,14.2
		c0.3,0.3,0.6,0.6,0.9,1c4.5-3.9,8.9-8,13.6-11.6c7-5.3,14.3-10.1,21.4-15.2c3.5-2.5,6.5-5.6,10.2-7.8c2.6-1.6,5.8-2.5,8.8-3.1
		c0.8-0.2,2.5,1.3,3,2.3c2.5,5,6.3,6.9,11,4.5c11.3-5.9,22.5-12.2,33.7-18.3c3.4-1.8,6.6-4,10.1-5.5c6.2-2.7,11.3,3.5,10.9,11.2
		c-0.2,3.6-2.6,7.4-4.8,10.6c-7,10.6-14.7,20.9-21.5,31.6c-3.7,5.8-5.5,12.7-9.3,18.3c-12.1,17.9-24.6,35.5-37.1,53.1
		c-6.8,9.4-13.8,18.7-21.2,27.7c-7.4,8.9-15.7,17-23,25.9c-5.1,6.3-9.3,13.3-13.9,20c-1.1,1.6-2.5,2.9-3.8,4.3
		C479.2,272.2,478.7,271.8,478.2,271.4z"/>
	<path d="M74.5,199.4c-4.6-5.3-9.2-9.8-12.9-15c-4.1-5.6-4-12.2-2.9-18.9c1.4-8.3,7.6-13,12.8-18.4c6-6.4,12.5-12.3,19.3-18
		c5.3-4.5,11.3-8.2,16.9-12.3c6.7-4.9,13.3-10,19.9-15c3.7-2.8,7.4-5.5,11-8.3c10.4-8,20.5-16.4,31.2-23.9
		c11.2-7.8,23-14.9,34.6-22.1c1.3-0.8,3.1-0.9,4.7-0.9c0.8,0,2.1,0.8,2.2,1.5c0.2,0.9-0.3,2.3-1,2.9c-1.5,1.3-3.3,2.3-4.9,3.4
		c0.2,0.3,0.4,0.7,0.6,1c4.4-1.6,8.8-3.3,13.7-5.1c-0.3,0.9-0.3,1.6-0.6,1.9c-8.1,5.9-16.3,11.7-24.5,17.6
		c-7.4,5.4-14.8,10.8-22.2,16.3c-1.1,0.8-2,2-2.3,3.8c1.7-1.1,3.4-2.1,5.1-3.2c0.1,0.4,0.3,0.8,0.3,0.8c-5.4,2.5-6.2,7.8-8.2,12.5
		c-5,11.9-10.1,23.9-15.5,35.6c-4.9,10.6-10.2,21-15.4,31.5c-0.4,0.9-0.7,1.9-1.4,3.8c4.3-1.6,7.8-3.3,11.4-4.2
		c5.6-1.4,11.3-2.3,16.9-3.4c2.2-0.4,14.4-1.2,16.5-0.9c2,0.2-6.1,1.4-4.4,2.6c0.2,0.1,4.3,1.4,3.4,1.8c-0.8,0.4-0.6-0.3-4.7,1.9
		c-2.7,1.2-11.2,4.3-15.9,6.5c-6.2,3-15.3,7.4-22.3,11.1c-5.1,2.6-11.2,7.4-13.9,13.4c-2.6,5.9-5,11.8-7.6,17.7
		c-2.9,6.7-5.9,13.3-9,20c-6.6,14.1-13.2,28.3-20,42.3c-3.8,7.9-8.2,15.4-12,23.3c-1,3-2.2,8.5-2.7,11c-0.6-0.1-1.9-2.9-3-4.5
		c-1.8-2.8-5.7-7.8-7.8-9.9c-0.7-0.7-2,9.4-2.4,7.8c-0.7-2.5-1.8-4.4-2.4-6.4c-0.8-4.1-1.5-7.1-2-9.6c-0.5-2.7-1.1-6.4-2.2-13.7
		c-1.7-12.1-1.3-17.8-4.3-29.7c-2-7.8-6-17.1-6.9-25.7c-0.2-1.6,0-3.9,1.4-4.9 M143.6,115.7c-0.3-0.3-0.7-0.6-1-0.9
		c-1.2,0.7-2.5,1.3-3.6,2.1c-9.2,6.8-18.5,13.5-27.7,20.5c-9.1,7-18.4,14.1-24.8,23.7c-2.4,3.7-3.8,8.4-4.5,12.8
		c-0.6,3.6,0.5,7.4,1,11.1c1,6.9,4.5,8.5,10.9,5.5c3.2-1.5,6.7-2.4,10-3.7c3.9-1.6,8-2.5,10.1-7.3c5.9-13.7,12.3-27.1,18.6-40.6
		C136.3,131.2,139.9,123.4,143.6,115.7z M68.9,273.2c6.7-6.9,9.7-15.5,13.4-23.6c3-6.6,6.1-13.2,9.2-19.8c3.2-6.8,6.3-13.6,9.4-20.2
		c-4.8-3.4-8.1-1.8-11.7,0.4c-7.8,4.8-15.9,9.2-23.1,13.3c-1.8,0.8-3.5,1.6-5.6,2.4c-2,0.8-2.4,0.9-4.7,1.9c-1,0.5-1.4,0.4-0.9,1
		c3.7,4.8,5.9,11.3,8,17.7C65.8,254.9,67,264,68.9,273.2z"/>
	<g id="Name-e">
		<path d="M171.5,145.9c8.6-8.6,19-15.6,30.3-20.2c2.8-1.2,6.3-2.2,8.8-0.5c2.4,1.6,3.1,4.9,3,7.8c-0.1,2.9-0.7,5.9,0.2,8.6
			c1.4,4.3-2.1,8.4-5.4,11.5c-10,9.4-21.5,18.7-35.2,20.1c-3.2,0.3-3.3,5.7-0.5,7.4c2.8,1.7,6.3,0.8,9.5-0.1
			c13.6-3.9,27.2-7.9,40.8-11.8c0.9,3.6-0.6,7.6-3,10.4c-2.5,2.8-5.8,4.7-9.3,6.3c-6.8,3.1-14.1,5.2-21.6,6.2
			c-9.5,1.2-20.4,0-26.5-7.5c-4.5-5.6-5.1-13.6-3-20.4S166.4,151,171.5,145.9 M187.2,143.6c4.7-3.6,9.7-7.2,15.5-7.9
			c-10.8,6.5-20,15.5-26.8,26.1c0.3,0.6,1.2,0.4,1.8,0.1c11.3-6.2,21.2-14.9,28.8-25.3c0.8-1.1,0.1-2.7-1-3.4
			c-1.1-0.7-2.6-0.6-3.9-0.4c-5.5,0.8-10.7,3.9-14,8.4C187.1,141.9,186.6,142.9,187.2,143.6z"/>
	</g>
	<g id="Name-s">
		<path d="M213.9,186.9c1.2-0.8,4.5-2.6,5.6-3.2c6-3.4,12.2-6.6,18.5-9.5c2.9-1.3,5.5-3.3,7.8-5.7c1.1-1.2,2.1-2.9,1.5-4.4
			c-0.3-0.6-0.6-1.2-1-1.7c-0.4-0.5-0.6-0.8-1.2-1.4c-1.3-0.8-1-0.8-2.5-1.5c-5.8-2-12.3-4.8-14.3-11c-1-3.3-0.5-7,0.9-10.1
			c1.5-3.1,3.8-5.6,6.3-7.8c4.7-4,10.3-6.9,16.1-8.2c3.7-0.9,7.4-1.5,10.8-2.1c1.2-0.1,14.4-2.2,16.4-2.2c2.7-0.1-5,1.1-3.2,1.8
			c-2.4,1.1-2.9,1.9-2.9,2.4c0,1-0.1,1.7-1,2.1c-10.3,5.3-23.3,3.7-31,15.8c-0.4,0.7-2.1,2.5-2,4.1c0,1.6,0.2,3.5,1.3,4.7
			c0.4,0.4,0.9,0.4,1.3,0.7c3,0.9,10.5,4.2,15,8c2.3,2,4.6,4.4,5.2,7.5c1,4.8-2.1,9.5-5.7,12.5c-3.3,2.8-7,4.7-10.8,6.7
			c-0.9,0.4-1.6,1-2.4,1.5c-0.5,0.2-1.1,0.5-1.8,1c-1.6,0.8-2.3,1.1-3.3,1.6c-3.7,1.5-6.8,2.7-10.7,4.1c-1.5,0.4-5.2,1.3-9.1,1.3
			c4.5-3.6-2.9-6-7.5-4.4"/>
	</g>
	<g id="Name-s_1_">
		<path d="M253.7,186.9c1.2-0.8,4.5-2.6,5.6-3.2c6-3.4,12.2-6.6,18.5-9.5c2.9-1.3,5.5-3.3,7.8-5.7c1.1-1.2,2.1-2.9,1.5-4.4
			c-0.3-0.6-0.6-1.2-1-1.7c-0.4-0.5-0.6-0.8-1.2-1.4c-1.3-0.8-1-0.8-2.5-1.5c-5.8-2-12.3-4.8-14.3-11c-1-3.3-0.5-7,0.9-10.1
			c1.5-3.1,3.8-5.6,6.3-7.8c4.7-4,10.3-6.9,16.1-8.2c3.7-0.9,7.4-1.5,10.8-2.1c1.2-0.1,14.4-2.2,16.4-2.2c2.7-0.1-5,1.1-3.2,1.8
			c-2.4,1.1-2.9,1.9-2.9,2.4c0,1-0.1,1.7-1,2.1c-10.3,5.3-23.3,3.7-31,15.8c-0.4,0.7-2.1,2.5-2,4.1c0,1.6,0.2,3.5,1.3,4.7
			c0.4,0.4,0.9,0.4,1.3,0.7c3,0.9,10.5,4.2,15,8c2.3,2,4.6,4.4,5.2,7.5c1,4.8-2.1,9.5-5.7,12.5c-3.3,2.8-7,4.7-10.8,6.7
			c-0.9,0.4-1.6,1-2.4,1.5c-0.5,0.2-1.1,0.5-1.8,1c-1.6,0.8-2.3,1.1-3.3,1.6c-3.7,1.5-6.8,2.7-10.7,4.1c-1.5,0.4-5.2,1.3-9.1,1.3
			c4.5-3.6-2.9-6-7.5-4.4"/>
	</g>
	<g id="Name-e_1_">
		<path d="M317.3,143.8c8.6-8.6,19-15.6,30.3-20.2c2.8-1.2,6.3-2.2,8.8-0.5c2.4,1.6,3.1,4.9,3,7.8s-0.7,5.9,0.2,8.6
			c1.4,4.3-2.1,8.4-5.4,11.5c-10,9.4-21.5,18.7-35.2,20.1c-3.2,0.3-3.3,5.7-0.5,7.4c2.8,1.7,6.3,0.8,9.5-0.1
			c13.6-3.9,27.2-7.9,40.8-11.8c0.9,3.6-0.6,7.6-3,10.4s-5.8,4.7-9.3,6.3c-6.8,3.1-14.1,5.2-21.6,6.2c-9.5,1.2-20.4,0-26.5-7.5
			c-4.5-5.6-5.1-13.6-3-20.4C307.6,154.7,312.2,148.9,317.3,143.8 M333,141.5c4.7-3.6,9.7-7.2,15.5-7.9c-10.8,6.5-20,15.5-26.8,26.1
			c0.3,0.6,1.2,0.4,1.8,0.1c11.3-6.2,21.2-14.9,28.8-25.3c0.8-1.1,0.1-2.7-1-3.4s-2.6-0.6-3.9-0.4c-5.5,0.8-10.7,3.9-14,8.4
			C332.9,139.8,332.4,140.8,333,141.5z"/>
	</g>
	<g id="Name-e_2_">
		<path d="M591.3,143.8c8.6-8.6,19-15.6,30.3-20.2c2.8-1.2,6.3-2.2,8.8-0.5c2.4,1.6,3.1,4.9,3,7.8s-0.7,5.9,0.2,8.6
			c1.4,4.3-2.1,8.4-5.4,11.5c-10,9.4-21.5,18.7-35.2,20.1c-3.2,0.3-3.3,5.7-0.5,7.4c2.8,1.7,6.3,0.8,9.5-0.1
			c13.6-3.9,27.2-7.9,40.8-11.8c0.9,3.6-0.6,7.6-3,10.4s-5.8,4.7-9.3,6.3c-6.8,3.1-14.1,5.2-21.6,6.2c-9.5,1.2-20.4,0-26.5-7.5
			c-4.5-5.6-5.1-13.6-3-20.4C581.6,154.7,586.2,148.9,591.3,143.8 M607,141.5c4.7-3.6,9.7-7.2,15.5-7.9c-10.8,6.5-20,15.5-26.8,26.1
			c0.3,0.6,1.2,0.4,1.8,0.1c11.3-6.2,21.2-14.9,28.8-25.3c0.8-1.1,0.1-2.7-1-3.4c-1.1-0.7-2.6-0.6-3.9-0.4c-5.5,0.8-10.7,3.9-14,8.4
			C606.9,139.8,606.4,140.8,607,141.5z"/>
	</g>
	<path d="M710,204.9c-0.2-18.9-4.3-37.6-10-56c-1.7-5.3-3.5-10.7-7.2-15.4c-3.6-4.6-9.4-8.4-16.1-9.1c-6.7-0.6-14,2.7-15.7,8
		c-1.2,0.3-2.5-0.5-3-1.5s-0.6-2.1-1.1-3c-1.1-2-4.3-3.1-6.8-2.3c-0.9,0.3-1.6,0.8-2.2,1.4c-0.3,0-0.5-0.1-0.8-0.1
		c0.1,0,0.1-0.1,0.2-0.1c-0.8-0.8-2.5-0.2-3,0.7c-0.5,0.9-0.3,2,0,3c3.9,14.8,5.2,30.1,4,45.2c-0.2,2.3-0.4,4.6,0.9,6.6
		c1.4,2.3,4.4,3.6,7.3,4.5c1.8,0.6,3.7,1.1,5.6,0.8s3.7-1.6,3.6-3.2c-1-15.8,0.8-31.7,5.4-47c0.6-2,2.4-4.5,4.7-3.7
		c1,0.3,1.6,1.2,2,2c3.5,5.9,6.7,11.9,9.6,18c2.6,5.4,5,10.9,7.1,16.4c2.1,5.5,3.8,11.1,5.2,16.8c0.3,1.2,0.6,2.5,1.4,3.6
		c1,1.3,1.4,2.8,1.7,4.3c1.2,4.6,2.3,9.2,3.5,13.8c1.3-2.6,1.1-5.7-0.5-8.1C707.9,201.6,709.3,203.1,710,204.9z"/>
	<g id="Name-a">
		<path d="M743.4,126.7c4.3,0.2,8.6,0.5,12.9,0.7c1.8,0.1,3.6,0.2,5.3,1c2.8,1.3,4.5,4.3,5,7.3c0.5,3,0.1,6.1-0.2,9.2
			c-1.3,13.1-0.7,27.1,6.5,38.2c0.9,1.4-0.2,3.4-1.8,4c-1.6,0.6-3.3,0.1-4.9-0.6c-3.9-1.7-7.2-4.7-9.4-8.4c-1.1-1.9-4.1-0.5-5.8,0.9
			c-4.2,3.6-9.1,6.6-14.5,7.3c-7.7,0.9-15.5-3.2-20.2-9.5c-4.6-6.2-6.4-14.3-6.3-22.1c0.1-5.7,1.2-11.6,4.2-16.5
			c3-4.9,8-8.8,13.7-9.4c1.7-0.2,3.4-0.1,4.9-0.9C736,126.4,739.8,126.5,743.4,126.7 M745,167.4c2.7-2.5,4.2-6,4.9-9.5
			c0.6-3,0.6-6,0.7-9c0.1-3.7,0.1-7.4,0.2-11.2c0-0.3,0-0.6-0.2-0.9c-0.2-0.3-0.7-0.4-1.1-0.5c-7.9-1.2-16,2.9-20.7,9.3
			c-4.7,6.5-6,14.9-4.8,22.8c0.3,1.8,0.7,3.7,1.9,5.2s3.3,2.3,5,1.4c2.4-1.2,4.9-2.4,7.3-3.6C740.6,170.4,743,169.2,745,167.4
			 M718.5,135.9c-5.9,5.4-6.9,14.2-7.5,22.2c0,0.3,0,0.6,0.1,0.8c0.3,0.5,1.1,0.4,1.5-0.1c0.4-0.5,0.4-1.1,0.4-1.7
			c0.2-5.3,1.5-10.5,3.9-15.2C717.9,140.1,719.1,138,718.5,135.9 M723.9,132.6c0.8-0.4,1.5-0.7,2.3-1.1c-0.7-0.3-1.5-0.6-2.2-0.4
			c-0.7,0.3-0.9,1.5-0.1,1.7L723.9,132.6z"/>
	</g>
	<g id="Name-r">
		<path d="M778.5,155.3c0-1.5,0.8-3,2-4C780.2,152.8,779.5,154.2,778.5,155.3z"/>
		<path d="M783.4,126.7c0.1-0.5,0.3-1.1,0.8-1.4c3.3-1.6,7.6-0.9,10.2,1.6c2.6,2.5,3.5,6.7,2,10c8.6-8.5,23.6-9.6,33.3-2.5
			c1.4,1-0.1,3.4-1.9,3.6s-3.4-0.9-5.1-1.3c-3.4-0.8-6.8,1.1-9.6,3c-4.7,3.1-9.1,6.7-13.1,10.7c-1.2,1.2-2.4,2.6-2.4,4.2
			c0.5,9.9,0.3,19.9-0.8,29.8c-0.1,0.5-0.1,1.1-0.4,1.6c-0.9,1.5-3.1,1.2-4.7,0.6c-2.2-0.8-4.4-1.7-6.4-2.8c-2-1.1-4-2.3-5.5-3.9
			c-2.8-3-4.1-7.1-4.2-11.1c-0.1-4,0.9-8,2.2-11.9c-0.8,4.9-1.1,9.9-1,14.9c0,1,0.7,2.4,1.6,1.9c-0.5-5.6-0.6-11.4,1.5-16.6
			c0.7-1.9,1.8-3.6,2.3-5.5c1.1-3.6,0.4-7.4,0.2-11.1C782.1,135.7,782.4,131.1,783.4,126.7z"/>
	</g>
	<g id="Name-d">
		<path d="M845.3,185.9c-7.8,3.4-17.9,0.2-22.4-7.1c-5.6-9.1-2-21.1,4-29.9c4.2-6.1,9.6-11.4,16.2-14.6c6.6-3.2,14.5-4.1,21.4-1.6
			c2,0.8,3.4,2.7,3.9,4.6c0.2,1,0.1,1.2,0.2,1.8c0,0.7,0.1,1.3,0.5,0.8c6.1-21.2,12-42.5,17.6-63.8c0.2-0.6,1.8-6.3,1.8-5.7
			c-0.5,11.3,6.5,2.5,6.8,2.5c3.6,0,4.3,5.9,3.3,9.3c-10.1,34.5-20.2,69-30.3,103.5c-0.3,1-0.7,2.1-1.7,2.5c-0.8,0.3-1.7,0-2.5-0.4
			c-3.9-2-6.4-6.6-5.9-11C853.9,179.8,850.2,183.9,845.3,185.9 M862,145.8c-1.1-1.6-3.5-1.6-5.4-1.5c-1.9,0.1-3.9,0.3-5.4,1.3
			c-10.2,6.6-17.4,17.6-19.3,29.6c1,0.6,2.3,0.3,3.4,0c7.4-2.2,14.2-6.2,19.8-11.5c4.3-4.1,8-9.5,7.7-15.4
			C862.7,147.5,862.6,146.5,862,145.8 M821.6,169.8c1.9-10.5,7.6-20.2,15.7-27c1.6-1.3,2.1-3.8,4-4.7c0.7-0.3,1.7-0.7,1.6-1.4
			c-1.3-0.5-2.7,0.5-3.7,1.5c-7.8,7.7-16.1,16-18.2,26.7C820.6,166.6,820.5,168.5,821.6,169.8z"/>
	</g>
</g>
<text transform="matrix(1 0 0 1 191.631 269.1162)" class="st0 st1 st2">BRAN</text>
<text transform="matrix(1 0 0 1 299.2174 269.1162)" class="st0 st1 st2">D</text>
<text transform="matrix(1 0 0 1 326.337 269.1162)" class="st0 st1 st2">ING  </text>
<text transform="matrix(1 0 0 1.2 408.0289 266.1162)" class="st0 st1 st2">|</text>
<text transform="matrix(1 0 0 1 426.4547 269.1162)" class="st0 st1 st2">  UX</text>
<text transform="matrix(1 0 0 1 496.1476 265.4014)" class="st0 st1 st2">/</text>
<text transform="matrix(1 0 0 1 508.1466 269.1162)" class="st0 st1 st2">UI  </text>
<text transform="matrix(1 0 0 1.2 563.9083 266.1162)" class="st0 st1 st2">|</text>
<text transform="matrix(1 0 0 1 582.3341 269.1162)" class="st0 st1 st2">  </text>
<text transform="matrix(1 0 0 1 600.1656 269.1162)" class="st0 st1 st2">M</text>
<text transform="matrix(1 0 0 1 632.6344 269.1162)" class="st0 st1 st2 st3">O</text>
<text transform="matrix(1 0 0 1 658.8248 269.1162)" class="st0 st1 st2">T</text>
<text transform="matrix(1 0 0 1 682.4523 269.1162)" class="st0 st1 st2">I</text>
<text transform="matrix(1 0 0 1 692.7057 269.1162)" class="st0 st1 st2">ON</text>
</svg>
