<?xml version="1.0" encoding="utf-8"?>
<!-- Generator: Adobe Illustrator 20.1.0, SVG Export Plug-In . SVG Version: 6.00 Build 0)  -->
<svg version="1.1" id="Layer_1" xmlns="http://www.w3.org/2000/svg" xmlns:xlink="http://www.w3.org/1999/xlink" x="0px" y="0px"
	 viewBox="0 0 600 600" style="enable-background:new 0 0 600 600;" xml:space="preserve">
<path d="M397.6,540.1h-195C128,540.1,66.9,479,66.9,404.4V196.6C66.9,122,128,60.9,202.6,60.9h195c74.6,0,135.7,61.1,135.7,135.7
	v207.8C533.3,479.1,472.2,540.1,397.6,540.1z M397.6,504.3c26.5,0,51.5-10.4,70.5-29.4s29.4-44,29.4-70.5V196.6
	c0-26.5-10.4-51.5-29.4-70.5s-44-29.4-70.5-29.4h-195c-26.5,0-51.5,10.4-70.5,29.4s-29.4,44-29.4,70.5v207.8
	c0,26.5,10.4,51.5,29.4,70.5s44,29.4,70.5,29.4L397.6,504.3L397.6,504.3z"/>
<path d="M429.2,298.7c0,70.9-57.5,128.4-128.4,128.4s-128.4-57.5-128.4-128.4s57.5-128.4,128.4-128.4S429.2,227.7,429.2,298.7z
	 M300.1,214.7c-46.4,0-84.1,37.7-84.1,84.1s37.7,84.1,84.1,84.1s84.1-37.7,84.1-84.1S346.6,214.7,300.1,214.7z"/>
<circle cx="431.3" cy="168.2" r="30.4"/>
</svg>
