<?xml version="1.0" encoding="utf-8"?>
<!-- Generator: Adobe Illustrator 20.1.0, SVG Export Plug-In . SVG Version: 6.00 Build 0)  -->
<svg version="1.1" id="Layer_1" xmlns="http://www.w3.org/2000/svg" xmlns:xlink="http://www.w3.org/1999/xlink" x="0px" y="0px"
	 viewBox="0 0 92 96" style="enable-background:new 0 0 92 96;" xml:space="preserve">
<g id="Menard_Media">
</g>
<g id="Moon">
</g>
<g id="Arrow">
</g>
<g id="Line_1">
</g>
<g id="Line_2">
</g>
<g id="M">
	<g>
		<path d="M55.5,14.6c11.6,3.9,19.9,14.9,19.9,27.8c0,16.2-13.1,29.4-29.4,29.4S16.6,58.6,16.6,42.3c0-12.9,8.3-23.8,19.9-27.8
			c-14.2,4.1-24.6,17.2-24.6,32.8c0,18.8,15.3,34.1,34.1,34.1s34.1-15.3,34.1-34.1C80.1,31.8,69.7,18.7,55.5,14.6z"/>
		<polygon points="46,69.5 41.8,66.2 42.3,65.5 46,68.3 49.7,65.5 50.2,66.2 		"/>
		<rect x="38.1" y="61.6" width="15.9" height="0.9"/>
		<rect x="32.3" y="57.8" width="27.3" height="0.9"/>
		<polygon points="32.8,54.9 31.9,54.9 31.9,20.7 54.2,37.9 53.7,38.6 32.8,22.6 		"/>
		<polygon points="60.1,54.9 59.2,54.9 59.2,22.6 38.3,38.6 37.8,37.9 60.1,20.7 		"/>
	</g>
</g>
</svg>
