<?xml version="1.0" encoding="utf-8"?>
<!-- Generator: Adobe Illustrator 20.1.0, SVG Export Plug-In . SVG Version: 6.00 Build 0)  -->
<svg version="1.1" id="Layer_1" xmlns="http://www.w3.org/2000/svg" xmlns:xlink="http://www.w3.org/1999/xlink" x="0px" y="0px"
	 viewBox="0 0 326 331" style="enable-background:new 0 0 326 331;" xml:space="preserve">
<style type="text/css">
	.st0{fill:none;stroke:#000000;stroke-width:4;stroke-miterlimit:10;}
</style>
<g id="Menard_Media">
</g>
<g id="Moon">
</g>
<g id="Arrow">
</g>
<g id="Line_1">
</g>
<g id="Line_2">
</g>
<g id="M">
	<g>
		<path d="M204.4,19.8C254.8,37,291,84.7,291,140.9c0,70.7-57.3,128-128,128s-128-57.3-128-128C35,84.7,71.2,37,121.6,19.8
			c-62,17.9-107.3,75-107.3,142.8c0,82.1,66.6,148.7,148.7,148.7s148.7-66.6,148.7-148.7C311.7,94.8,266.4,37.7,204.4,19.8z"/>
		<polyline class="st0" points="180.3,243.4 163,256.7 145.7,243.4 		"/>
		<line class="st0" x1="128.4" y1="226.8" x2="197.6" y2="226.8"/>
		<line class="st0" x1="103.5" y1="210.2" x2="222.5" y2="210.2"/>
		<polyline class="st0" points="103.5,195.5 103.5,50.8 197.6,123.2 		"/>
		<polyline class="st0" points="222.5,195.5 222.5,50.8 128.4,123.2 		"/>
	</g>
</g>
</svg>
