<?xml version="1.0" encoding="utf-8"?>
<!-- Generator: Adobe Illustrator 20.1.0, SVG Export Plug-In . SVG Version: 6.00 Build 0)  -->
<svg version="1.1" id="Layer_1" xmlns="http://www.w3.org/2000/svg" xmlns:xlink="http://www.w3.org/1999/xlink" x="0px" y="0px"
	 viewBox="0 0 600 600" style="enable-background:new 0 0 600 600;" xml:space="preserve">
<style type="text/css">
	.st0{fill:#B7B7B7;}
	.st1{fill:#939393;}
	.st2{font-family:'Roboto-Light';}
	.st3{font-size:40.8879px;}
</style>
<g>
	<rect x="0.5" y="0.5" class="st0" width="599" height="599"/>
	<path d="M599,1v598H1V1H599 M600,0H0v600h600V0L600,0z"/>
</g>
<g id="M">
	<g>
		<path class="st1" d="M341.4,154.2c50.4,17.2,86.6,64.9,86.6,121.1c0,70.7-57.3,128-128,128s-128-57.3-128-128
			c0-56.2,36.2-103.9,86.6-121.1c-62,17.9-107.3,75-107.3,142.8c0,82.1,66.6,148.7,148.7,148.7S448.7,379.1,448.7,297
			C448.7,229.3,403.4,172.2,341.4,154.2z"/>
		<polygon class="st1" points="300,393.7 281.5,379.4 283.9,376.3 300,388.6 316.1,376.3 318.5,379.4 		"/>
		<rect x="265.4" y="359.2" class="st1" width="69.2" height="4"/>
		<rect x="240.5" y="342.7" class="st1" width="119" height="4"/>
		<polygon class="st1" points="242.5,330 238.5,330 238.5,181.2 335.8,256.1 333.4,259.2 242.5,189.3 		"/>
		<polygon class="st1" points="361.5,330 357.5,330 357.5,189.3 266.6,259.2 264.2,256.1 361.5,181.2 		"/>
	</g>
</g>
<text transform="matrix(1 0 0 1 161.9043 501.152)" class="st1 st2 st3">PLACEHOLDER</text>
</svg>
