<?xml version="1.0" encoding="utf-8"?>
<!-- Generator: Adobe Illustrator 20.1.0, SVG Export Plug-In . SVG Version: 6.00 Build 0)  -->
<svg version="1.1" id="Layer_1" xmlns="http://www.w3.org/2000/svg" xmlns:xlink="http://www.w3.org/1999/xlink" x="0px" y="0px"
	 viewBox="0 0 943.2 431.2" style="enable-background:new 0 0 943.2 431.2;" xml:space="preserve">
<g>
	<path d="M135.3,251.8c8.2-0.9,15.4-1.5,22.6-2.5c0.9-0.1,1.8-2.2,2-3.4c0.3-1.6-0.6-3.3-0.4-4.9c0.7-5.2,1.2-10.1,7.9-12.1
		c7.2-2.2,13.7-6.3,20.7-9.2c4.1-1.7,7.9-0.1,10.8,3.2c2.8,3.2,2,6.5-0.2,9.6c-3.7,5.3-7.5,10.5-11.2,15.7c-0.9,1.2-2.1,3.3-1.7,4.1
		c0.6,1.1,2.7,2,4.2,2c6.3,0.2,12.6,0.1,18.9,0.1c5.3,0,9.1-2,11.7-6.9c2-4-0.3-6.2-2.8-7.5c-3.9-2-8.2-2.9-12.4-4.4
		c2.4-7.1,14.5-13,23.9-11.3c9.1,1.7,17.9,4.8,27,6.6c2.9,0.6,6.3-1,9.3-2c9-2.9,18.3-5.2,27.4-2.1c7.3,2.4,14,6.6,20.7,10.5
		c1.6,0.9,2.6,3.9,2.8,6c0.5,5.8,0.9,6.1,7.4,4c-0.8-2.4-1.6-4.9-2.4-7.4c5.4-3.1,10.3-7.4,15.9-8.9c7-1.8,14.8-2.5,21.9-1.4
		c7.4,1,8.9,5.1,8.3,13.8c-0.1,0.8,0,1.5,0,3c7.3-1.4,14.2-3,21.2-4.1c3.9-0.6,8-0.7,11.8,0c2.1,0.4,3.8,3,5.6,4.6
		c-1.5,1.6-2.7,4-4.5,4.7c-16,5.6-32.4,8.7-49.4,8.8c-6.9,0-13.8,1.9-20.7,2.1c-8.1,0.3-16.2-0.4-24.3-0.3c-7,0.1-13.9,0.8-20.9,1.3
		c-3.5,0.3-6.8,0.7-8.9-3.5c-0.6-1.2-4.2-1.7-6.2-1.3c-7.6,1.5-15,4.1-22.6,5.1c-5.4,0.7-11-0.8-16.5-1.2c-1.7-0.1-3.5-0.3-5.2,0
		c-5.8,1.2-11.5,3.7-17.3,3.9c-10.4,0.4-20.9-0.4-31.3-0.9c-1.4-0.1-3.3-0.6-4.1-1.6c-3.9-5-8.6-3.2-13.6-2.4
		c-10.2,1.7-20.4,3-30.7,3.9c-4.2,0.4-6.9,2.2-8.7,5.6c-8.5,16.5-17.3,32.9-25.3,49.7c-6.2,13.1-11.3,26.6-17,39.9
		c-3.8,8.8-14.3,10.3-20.7,3.2c-1-1.1-2.2-1.8-3.3-2.8c-2.9-2.7-4.6-5.5-3.6-10.1c1.8-8.3,2.6-16.8,3.8-25.2c0.1-0.5,0.2-1.1,0-1.5
		c-5.5-8.9-1.3-18.6-2.5-27.8c-0.7-5.2-2-10.2-2.9-15.4c-1.1-5.9-2.6-11.9-2.8-17.8c-0.1-1.8,3.4-4,5.5-5.7
		c8.1-6.3,17.2-5.4,26.6-3.9c6.8,1.1,13.8,0.8,20.8,0.9c7.4,0,10.1-5.3,12.3-11.3c-10.4-5.4-17.7-14-23.6-23.6
		c-4.9-8.1-2.3-16.9,1.4-24.9c9.1-19.7,24.7-34,40.3-48.3c23.1-21.1,48.4-39,77.9-50.4c7.6-2.9,15.1-6.1,22.7-9
		c4.5-1.7,9.3-1,12.5,2.4c3.4,3.5,2.5,8.1,1.1,12.7c-4.8,15.6-15.6,27.3-25,39.9c-8.5,11.3-17.7,22.1-26.6,33
		c-12.8,15.7-26,31.1-38.4,47.1C147.8,231.5,142.1,241.5,135.3,251.8z M221,102.1c-11.5,5.1-22.4,8.8-32,14.4
		c-30.9,18-58.3,40.2-78.7,70.1c-3.9,5.7-6.3,12.3-4,18.9c3.1,8.9,9.8,15.5,16.9,22.7C153.5,184.4,193.2,148.7,221,102.1z
		 M94.8,269.7c-8.4-0.5-16.2-1-22.9-1.4c1,9.7,1.9,19.2,2.9,28.7c0.2,1.4,1.2,2.8,1.8,4.2c1.1-1,2.7-1.7,3.3-2.9
		C84.9,289,89.7,279.5,94.8,269.7z M279.5,242.2c-0.1-0.6-0.3-1.2-0.4-1.8c-3.4,0.2-6.9,0.2-10.3,0.7c-0.9,0.1-1.5,1.7-2.2,2.6
		c1,0.6,2.1,1.8,2.8,1.6C272.8,244.4,276.1,243.2,279.5,242.2z"/>
	<path d="M739.2,228.2c3.1-6.2,7.1-7.4,14.6-4.4c8,3.2,8.1,3.1,12.3-4.1c0.6-1.1,2.6-2,3.8-1.9c8.6,0.5,15.8,3.5,20.9,11.8
		c0.6-3,1.3-5.4,1.5-7.9c0.5-4.8,3.5-7.3,7.5-9.2c8.5-4.2,17.6-4.3,26.8-4.4c7.7,0,9.2-0.7,11.5-7.5c3.4-10,6.8-20.1,9.9-30.3
		c0.9-1.4,1.5-2.1,2.3-3.3c2.2-3.8,1.6-3.2,4.2-6.8c2.3-4.6,3.1-5.4,3.8-8.4c5-21.4,9.3-42.9,20.9-62.1c1.4-2.4,3.5-4.3,6.2-7.6
		c1.5-1.5,1.5-1.5,3-2.4c4.3-2.8,4.2-3,9.7-3.7c4.7,0.8,5.4,6,6.9,9.4c2.8,7.1,0.1,11.8-0.4,17.5c-0.7,9.6-3.5,18.6-7.5,27.6
		c-5.2,11.9-8.3,18.5-12.6,31.8c-0.6,1.4-0.4,0.9-1,2.1c-8.1,12.5-14.8,25.4-16.8,40c-1.4,10.2-4.3,19.4-10.3,27.6
		c-3,4.1-2,8.2-0.6,12.3c0.3,0.9,3.1,1.9,4.2,1.5c6.4-2.7,12.9-5.4,18.9-8.9c8-4.7,15.6-10.1,23.4-15.2c1.2-0.8,2.6-1.3,3.6-1.8
		c0.7,1.1,1.1,2.3,1.8,2.6c4.8,2.2,6.6,7.4,3.7,11.6c-8.9,12.4-20.3,22.1-34.8,27c-11.1,3.7-21.8,0.9-30.8-6.7
		c-4-3.4-7.1-4.8-12.6-1.4c-3.4,2.2-9.6,1.6-14,0.3c-10.9-3.2-21.4-7.4-32.1-11.3c-0.8-0.3-1.5-0.7-2.2-1.2c-3.7-3-6.7-6.7-10.8,0.5
		c-2.1,3.8-7.9,4.6-12.8,3.1c-3.2-1-5.4-0.3-7.7,2.4c-6.5,7.6-10.8,8.3-19.5,3.1c-3.7-2.2-6.1-1.8-9.1,0.9c-2.8,2.5-6,4.8-9.3,6.7
		c-4.9,2.8-10.1,3.3-15.2,0.3c-4.5-2.6-8.5-3.7-14.1-1c-9.7,4.7-22.2-4.1-23.3-15.3c-0.5-5.3-1.1-5.7-6.1-4.3
		c-7.2,2-11.7,6.9-15.4,13.1c-4.5,7.4-7.5,8-13.7,2.3c-3.2-3-5-2.7-7.7-0.2c-11.2,10.1-22.7,8.5-34.4,0.7c-1.5-1-3.3-2.1-5-2.1
		c-8.5-0.1-14.5-5.7-21.3-9.4c1.4-4.4,4.9-6.6,11.4-5.9c3.5,0.4,4.2-0.8,4.9-3.7c1.8-8,7-11.9,14.5-13.6c10.7-2.3,18.9,2.7,27.9,7.3
		c4.7-6,10.8-5.2,17.4-2.7c2.1,0.8,4.9,0.1,7.3-0.3c9.5-1.9,18.7-0.4,27.3,3.6c4.3,2,7.7,5.8,11.9,9.1c0.1-0.1,1.1-0.7,1.2-1.5
		c0.7-7.1,5.8-11,10.9-14.7c1.9-1.4,4.6-2.4,6.9-2.4c10.8,0,21.5,1.3,31.1,6.8C734.8,224.8,736.8,226.5,739.2,228.2z M818.1,235.2
		c0.4,0.5,0.8,1,1.2,1.5c3.1-2.4,6.3-4.8,9.4-7.2c-0.5-0.6-1-1.2-1.5-1.8C824.2,230.1,821.1,232.7,818.1,235.2z"/>
	<path d="M596,147.6c-8.5,8.8-17.6,17.1-25.9,26.2c-7.3,7.9-14,16.3-20.7,24.7c-14,17.7-41.7,53.3-41.7,53.3l-4.7,7.6
		c0,0-2.6,3.7-3.5,5.3c-5.7,9.8-11.1,19.7-16.7,29.5c-2,3.5-4.3,6.8-6.4,10.2c0.1,0.1,0.2,0.1,0.3,0.2c1.8-1.9-0.6,2.6,1.2,0.8
		c0.2,0.3-2.7,2.6-0.8,2c-1.8,3.1,2-1.5,0.1,1.8c2.3-0.3,4.1-0.4,5.9-0.7c4.2-0.6,7.5-2.4,10.2-6c10.1-13.8,20.2-27.5,30.7-40.9
		c12.7-16.2,25.8-32,38.9-47.9c24.2-29.5,51.4-56.1,79.7-81.6c8.4-7.6,16.1-16.2,23.5-24.9c4.2-4.9,3.4-9.3-1.6-13.6
		c-7.8-6.6-17-8-26.2-4.3c-17.3,6.8-34.3,14.5-51.4,21.7c-1.6,0.7-3.9,0.8-5.5,0.2c-5.3-2.2-10.5-3-15.9-0.9c-3.5,1.4-6.1,0.4-9-1.8
		c-6.8-5.1-14.7-6.2-21.9-1.6c-9.5,6-18.4,13.1-27.5,19.7c-2.5,1.8-4.9,3.6-8,5.8c7.9,5.2,15.1,9,23.6,1.6c1.3,2,2.3,3.4,3.3,4.9
		c3.6,5.5,9.6,7.4,15.6,4.8c2.3-1,4.3-2.6,6.6-3.4c1.4-0.5,3.8-0.4,4.7,0.6c5.1,5.5,10.7,5.5,16.8,2.2c12.1-6.6,24.1-13.4,36.3-19.9
		c6.6-3.5,13.3-6.7,20-10.1c0.5,0.7,1.1,1.4,1.6,2.2c-5,3.8-9.5,8.6-13.8,12.9c0.4,0.5-0.4-0.5,0,0"/>
</g>
</svg>
