<?xml version="1.0" encoding="utf-8"?>
<!-- Generator: Adobe Illustrator 21.0.2, SVG Export Plug-In . SVG Version: 6.00 Build 0)  -->
<svg version="1.1" id="Layer_1" xmlns="http://www.w3.org/2000/svg" xmlns:xlink="http://www.w3.org/1999/xlink" x="0px" y="0px"
	 viewBox="0 0 398.9 314.7" style="enable-background:new 0 0 398.9 314.7;" xml:space="preserve">
<g>
	<path d="M220.1,238.6c0.5-1.8,1.1-3.6,1.6-5.4c-0.4-0.2-0.7-0.4-1.1-0.7c-9.5,9.6-14.7,22.4-23.2,33c-0.9-0.8-1.6-1.3-2.7-2.2
		c-7.4,12.7-14.7,25.2-21.9,37.7c-0.3-0.1-0.6-0.3-0.9-0.4c4-7.9,7.6-16,12-23.7c8.4-14.8,17-29.6,25.8-44.1
		c7.8-12.8,15.9-25.4,24-37.9c10.7-16.4,21.5-32.7,32.3-49c6-9.1,11.8-18.2,18-27.1c6.3-9,12.9-17.7,19.4-26.5
		c4.6-6.3,9.2-12.5,13.8-18.8c0.4-0.6,0.6-1.4,1-2.5c-12.1,3.8-22.7,9.4-32,17.6c-3.8,3.4-7.3,7.9-13.6,7.1
		c-3.2-0.4-5.5-1.3-7.4-4.2c-2.7-4.2-5.1-4-8.8-0.6c-15,13.5-27.8,28.8-38.3,46c-2,3.2-10,6.1-12.4,4.7c-5.6-3.1-8.2-9.2-5.9-14.7
		c7.1-17.3,14.2-34.7,21.4-51.9c1.7-4.2,3.9-8.1,5.9-12.2c-0.5-0.4-1-0.8-1.5-1.3c-5.1,3.6-10.2,7.2-15.3,10.7
		c-3.6,2.4-7,5.1-10.9,6.9c-2.5,1.1-5.7,0.7-8.6,1c-0.2-0.6-0.5-1.3-0.7-1.9c1.6-1.4,3.2-3,4.9-4.3c9.7-7.2,19.5-14.4,29.2-21.5
		c3-2.2,5.9-4.4,9-6.3c7.7-5,13-2.1,14.6,6.9c0.6,3.7,0.4,6.2-1.6,9.5c-2.8,4.5-4.2,9.7-6.4,14.5c-2.2,4.8-4.6,9.5-6.9,14.2
		c0.3,0.3,0.6,0.6,0.9,1c4.5-3.9,8.9-8,13.6-11.6c7-5.3,14.3-10.1,21.4-15.2c3.5-2.5,6.5-5.6,10.2-7.8c2.6-1.6,5.8-2.5,8.8-3.1
		c0.8-0.2,2.5,1.3,3,2.3c2.5,5,6.3,6.9,11,4.5c11.3-5.9,22.5-12.2,33.7-18.3c3.4-1.8,6.6-4,10.1-5.5c6.2-2.7,11.3,3.5,10.9,11.2
		c-0.2,3.6-2.6,7.4-4.8,10.6c-7,10.6-14.7,20.9-21.5,31.6c-3.7,5.8-5.5,12.7-9.3,18.3c-12.1,17.9-24.6,35.5-37.1,53.1
		c-6.8,9.4-13.8,18.7-21.2,27.7c-7.4,8.9-15.7,17-23,25.9c-5.1,6.3-9.3,13.3-13.9,20c-1.1,1.6-2.5,2.9-3.8,4.3
		C221.1,239.4,220.6,239,220.1,238.6z"/>
	<path d="M77.5,166.7c-4.6-5.3-9.2-9.8-12.9-15c-4.1-5.6-4-12.2-2.9-18.9c1.4-8.3,7.6-13,12.8-18.4c6-6.4,12.5-12.3,19.3-18
		c5.3-4.5,11.3-8.2,16.9-12.3c6.7-4.9,13.3-10,19.9-15c3.7-2.8,7.4-5.5,11-8.3c10.4-8,20.5-16.4,31.2-23.9
		c11.2-7.8,23-14.9,34.6-22.1c1.3-0.8,3.1-0.9,4.7-0.9c0.8,0,2.1,0.8,2.2,1.5c0.2,0.9-0.3,2.3-1,2.9c-1.5,1.3-3.3,2.3-4.9,3.4
		c0.2,0.3,0.4,0.7,0.6,1c4.4-1.6,8.8-3.3,13.7-5.1c-0.3,0.9-0.3,1.6-0.6,1.9c-8.1,5.9-16.3,11.7-24.5,17.6
		c-7.4,5.4-14.8,10.8-22.2,16.3c-1.1,0.8-2,2-2.3,3.8c1.7-1.1,3.4-2.1,5.1-3.2c0.1,0.4,0.3,0.8,0.3,0.8c-5.4,2.5-6.2,7.8-8.2,12.5
		c-5,11.9-10.1,23.9-15.5,35.6c-4.9,10.6-10.2,21-15.4,31.5c-0.4,0.9-0.7,1.9-1.4,3.8c4.3-1.6,7.8-3.3,11.4-4.2
		c5.6-1.4,11.3-2.3,16.9-3.4c2.2-0.4,14.4-1.2,16.5-0.9c2,0.2-6.1,1.4-4.4,2.6c0.2,0.1,4.3,1.4,3.4,1.8c-0.8,0.4-0.6-0.3-4.7,1.9
		c-2.7,1.2-11.2,4.3-15.9,6.5c-6.2,3-15.3,7.4-22.3,11.1c-5.1,2.6-11.2,7.4-13.9,13.4c-2.6,5.9-5,11.8-7.6,17.7
		c-2.9,6.7-5.9,13.3-9,20c-6.6,14.1-13.2,28.3-20,42.3c-3.8,7.9-8.2,15.4-12,23.3c-1,3-2.2,8.5-2.7,11c-0.6-0.1-1.9-2.9-3-4.5
		c-1.8-2.8-5.7-7.8-7.8-9.9c-0.7-0.7-2,9.4-2.4,7.8c-0.7-2.5-1.8-4.4-2.4-6.4c-0.8-4.1-1.5-7.1-2-9.6c-0.5-2.7-1.1-6.4-2.2-13.7
		c-1.7-12.1-1.3-17.8-4.3-29.7c-2-7.8-6-17.1-6.9-25.7c-0.2-1.6,0-3.9,1.4-4.9 M146.6,82.9c-0.3-0.3-0.7-0.6-1-0.9
		c-1.2,0.7-2.5,1.3-3.6,2.1c-9.2,6.8-18.5,13.5-27.7,20.5c-9.1,7-18.4,14.1-24.8,23.7c-2.4,3.7-3.8,8.4-4.5,12.8
		c-0.6,3.6,0.5,7.4,1,11.1c1,6.9,4.5,8.5,10.9,5.5c3.2-1.5,6.7-2.4,10-3.7c3.9-1.6,8-2.5,10.1-7.3c5.9-13.7,12.3-27.1,18.6-40.6
		C139.2,98.4,142.9,90.6,146.6,82.9z M71.9,240.4c6.7-6.9,9.7-15.5,13.4-23.6c3-6.6,6.1-13.2,9.2-19.8c3.2-6.8,6.3-13.6,9.4-20.2
		c-4.8-3.4-8.1-1.8-11.7,0.4c-7.8,4.8-15.9,9.2-23.1,13.3c-1.8,0.8-3.5,1.6-5.6,2.4c-2,0.8-2.4,0.9-4.7,1.9c-1,0.5-1.4,0.4-0.9,1
		c3.7,4.8,5.9,11.3,8,17.7C68.8,222.1,69.9,231.2,71.9,240.4z"/>
</g>
</svg>
