<?xml version="1.0" encoding="utf-8"?>
<!-- Generator: Adobe Illustrator 20.1.0, SVG Export Plug-In . SVG Version: 6.00 Build 0)  -->
<svg version="1.1" id="Layer_1" xmlns="http://www.w3.org/2000/svg" xmlns:xlink="http://www.w3.org/1999/xlink" x="0px" y="0px"
	 viewBox="0 0 600 600" style="enable-background:new 0 0 600 600;" xml:space="preserve">
<path d="M522,162.3c-16.3,7.2-33.9,12.1-52.3,14.3c18.8-11.3,33.2-29.1,40.1-50.4c-17.6,10.4-37.1,18-57.8,22.1
	c-16.6-17.7-40.3-28.8-66.5-28.8c-50.3,0-91.1,40.8-91.1,91.1c0,7.1,0.8,14.1,2.4,20.8c-75.7-3.8-142.8-40.1-187.8-95.2
	c-7.8,13.5-12.3,29.1-12.3,45.8c0,31.6,16.1,59.5,40.5,75.8c-14.9-0.5-29-4.6-41.3-11.4c0,0.4,0,0.8,0,1.1
	c0,44.1,31.4,80.9,73.1,89.3c-7.6,2.1-15.7,3.2-24,3.2c-5.9,0-11.6-0.6-17.1-1.6c11.6,36.2,45.2,62.5,85.1,63.3
	c-31.2,24.4-70.5,39-113.1,39c-7.4,0-14.6-0.4-21.7-1.3c40.3,25.8,88.2,40.9,139.6,40.9c167.5,0,259.2-138.8,259.2-259.2
	c0-3.9-0.1-7.9-0.3-11.8C494.3,196.6,509.8,180.6,522,162.3z"/>
</svg>
